<svg xmlns="http://www.w3.org/2000/svg" viewBox="0 0 420 300" role="img" aria-labelledby="title desc">
<title id="title">AVIAF Asset Management</title>
<desc id="desc">AVIAF Asset Management black and gold elephant logo with Latin and English mottos</desc>
<defs>
  <linearGradient id="gold" x1="0" y1="0" x2="1" y2="1">
    <stop offset="0" stop-color="#8f6417"/>
    <stop offset=".28" stop-color="#e0b64d"/>
    <stop offset=".55" stop-color="#b87c17"/>
    <stop offset=".8" stop-color="#f0cb65"/>
    <stop offset="1" stop-color="#8a5a11"/>
  </linearGradient>
  <filter id="soft" x="-20%" y="-20%" width="140%" height="140%">
    <feDropShadow dx="0" dy="2" stdDeviation="2" flood-color="#000" flood-opacity=".18"/>
  </filter>
</defs>

<g font-family="Georgia, 'Times New Roman', serif" text-anchor="middle">
  <text x="210" y="28" font-size="12" letter-spacing="3.5" fill="#1a1713">AUT VIAM INVENIAM AUT FACIAM</text>
  <line x1="54" y1="38" x2="156" y2="38" stroke="url(#gold)" stroke-width="2"/>
  <line x1="264" y1="38" x2="366" y2="38" stroke="url(#gold)" stroke-width="2"/>

  <path d="M111 117c17-46 66-71 118-65 39 4 75 22 91 47 9 15 10 28 2 39-11 15-35 16-51 8-11-5-20-14-27-24-6-9-10-18-19-25-11-9-27-10-40-5-16 6-28 21-31 38-2 9-2 17-5 25-5 12-17 20-29 19-15-1-25-15-21-29 3-11 9-19 12-28z" fill="url(#gold)" opacity=".92"/>

  <!-- stylised elephant -->
  <g fill="#111" stroke="#c7932d" stroke-width="2.2" filter="url(#soft)">
    <path d="M145 150c7-28 24-48 49-59 24-11 52-10 74 3 13 8 23 19 31 31 6 9 14 12 21 8 9-5 11-18 10-30 9 9 13 22 10 35-3 14-12 25-25 31-10 4-20 5-30 2l-13-4c-9-3-18-2-25 3-12 9-18 23-20 39l-5 34h-24l4-39c1-12-2-23-8-32-7-10-19-16-31-15-12 1-22 7-29 17-6 8-10 19-11 29l-4 40h-24l4-42c1-15 5-30 12-44 7-13 18-23 34-27z"/>
    <path d="M300 120c13-1 25 3 34 11 9 8 14 19 14 31-6-6-14-10-23-12 10 8 15 18 16 29-8-7-17-12-28-14 8 7 11 15 11 24-8-7-17-12-27-15 9-8 15-20 16-32 1-8-3-15-13-22z"/>
    <path d="M139 157c-8 7-15 16-18 27-3 10-3 22 0 32 6-9 14-16 24-20l-6-39z"/>
  </g>

  <line x1="92" y1="210" x2="328" y2="210" stroke="url(#gold)" stroke-width="2.5"/>

  <text x="210" y="251" font-size="46" font-weight="700" letter-spacing="6" fill="#111" stroke="#b98522" stroke-width=".7">AVIAF</text>
  <line x1="55" y1="266" x2="105" y2="266" stroke="url(#gold)" stroke-width="2"/>
  <line x1="315" y1="266" x2="365" y2="266" stroke="url(#gold)" stroke-width="2"/>
  <text x="210" y="269" font-family="Arial, Helvetica, sans-serif" font-size="12" letter-spacing="5" fill="#24201b">ASSET MANAGEMENT</text>
  <text x="210" y="291" font-style="italic" font-size="14" fill="#1c1814">I will either find a way, or make one</text>
</g>
</svg>